<?xml version="1.0" encoding="UTF-8" standalone="no"?>
<svg width="214px" height="64px" viewBox="0 0 214 64" version="1.1" xmlns="http://www.w3.org/2000/svg" xmlns:xlink="http://www.w3.org/1999/xlink" xmlns:sketch="http://www.bohemiancoding.com/sketch/ns">
    <!-- Generator: Sketch 3.0.4 (8053) - http://www.bohemiancoding.com/sketch -->
    <title>app-store-button</title>
    <desc>Created with Sketch.</desc>
    <defs>
        <linearGradient x1="50%" y1="0%" x2="50%" y2="100%" id="linearGradient-1">
            <stop stop-color="#FF2969" offset="0%"></stop>
            <stop stop-color="#FF5D3A" offset="100%"></stop>
        </linearGradient>
        <path id="path-2" d="M206.387941,63.076874 L7.49634074,63.076874 C3.36376296,63.076874 0,59.7376122 0,55.6301781 L0,7.45458267 C0,3.34399392 3.36376296,0 7.49634074,0 L206.386356,0 C210.514178,0 213.882696,3.34399392 213.882696,7.45458267 L213.882696,55.6301781 C213.885867,59.7376122 210.517348,63.076874 206.387941,63.076874 L206.387941,63.076874 L206.387941,63.076874 Z"></path>
        <path id="path-3" d="M212.465541,55.6301781 C212.465541,58.9678626 209.748533,61.6714502 206.387941,61.6714502 L7.49634074,61.6714502 C4.13733333,61.6714502 1.41081481,58.9678626 1.41081481,55.6301781 L1.41081481,7.45300532 C1.41081481,4.11689818 4.13733333,1.4038465 7.49634074,1.4038465 L206.386356,1.4038465 C209.748533,1.4038465 212.463956,4.11689818 212.463956,7.45300532 L212.465541,55.6301781 L212.465541,55.6301781 Z"></path>
        <path id="path-4" d="M47.7584593,31.2064036 C47.7124889,26.1225865 51.941763,23.6492929 52.1351556,23.5341459 C49.7399407,20.0592315 46.027437,19.5844474 44.7228296,19.5465909 C41.6047704,19.2200783 38.580237,21.4031384 36.9918815,21.4031384 C35.3718222,21.4031384 32.9258815,19.578138 30.2897185,19.6317681 C26.8974222,19.6838208 23.7238815,21.6381644 21.9833481,24.6729967 C18.3913185,30.8609628 21.0702815,39.9544179 24.5117185,44.9562126 C26.2332296,47.4074233 28.2448296,50.1409805 30.8778222,50.0447619 C33.4537481,49.9406564 34.4159556,48.4121988 37.5245037,48.4121988 C40.6045185,48.4121988 41.5080741,50.0447619 44.1933778,49.983245 C46.9579407,49.9406564 48.6984741,47.5225702 50.3597481,45.050854 C52.3491556,42.2447383 53.1480889,39.4780565 53.1797926,39.3360945 C53.1163852,39.3140116 47.8123556,37.2981511 47.7584593,31.2064036 L47.7584593,31.2064036 Z"></path>
        <path id="path-5" d="M42.6858667,16.2562271 C44.0713185,14.5321774 45.0192593,12.1866495 44.7561185,9.80641991 C42.7508593,9.89475182 40.2430963,11.1866061 38.7989926,12.8727992 C37.5213333,14.3586682 36.38,16.7941053 36.6748444,19.0844257 C38.9273926,19.2516254 41.2401778,17.9534617 42.6858667,16.2562271 L42.6858667,16.2562271 Z"></path>
        <path d="M14.5226379,21.3006103 L12.5506676,15.1347272 L5.69632683,15.1347272 L3.81788238,21.3006103 L0.313037938,21.3006103 L7.10555646,0.309161702 L11.2999565,0.309161702 L18.1225935,21.3006103 L14.5226379,21.3006103 Z M11.9562231,12.547864 L10.1728898,7.06655319 C9.98425275,6.50659195 9.62917127,5.18792264 9.10923053,3.11212264 L9.04582312,3.11212264 C8.83657868,4.00490593 8.5021046,5.32357523 8.04398609,7.06655319 L6.29077127,12.547864 L11.9562231,12.547864 L11.9562231,12.547864 Z" id="path-6"></path>
        <path d="M35.5564602,13.5463301 C35.5564602,16.1205745 34.8542231,18.1553632 33.4481639,19.649119 C32.1895268,20.9788298 30.624949,21.6428965 28.7591861,21.6428965 C26.7444157,21.6428965 25.2955565,20.9283544 24.4157787,19.4961155 L24.4157787,27.4381011 L21.0361639,27.4381011 L21.0361639,11.1392854 C21.0361639,9.5224959 20.9933639,7.86469514 20.9109342,6.16430578 L23.8831565,6.16430578 L24.0717935,8.56346368 L24.1352009,8.56346368 C25.2622676,6.75581413 26.9726824,5.85198936 29.2680305,5.85198936 C31.0624602,5.85198936 32.5604602,6.55706733 33.7588602,7.96880061 C34.955675,9.3836886 35.5564602,11.2418135 35.5564602,13.5463301 L35.5564602,13.5463301 Z M32.1134379,13.6693638 C32.1134379,12.1961137 31.780549,10.9815498 31.1116009,10.024095 C30.3808305,9.02878359 29.3996009,8.53033921 28.1694972,8.53033921 C27.3356898,8.53033921 26.5779713,8.8079538 25.9010972,9.3552962 C25.2226379,9.90737067 24.7787861,10.6282222 24.5711268,11.5210055 C24.4665046,11.9374274 24.4141935,12.2765588 24.4141935,12.5447093 L24.4141935,15.0700556 C24.4141935,16.1694725 24.7534231,17.098535 25.4318824,17.8588204 C26.1103416,18.6159511 26.9917046,18.9960938 28.0759713,18.9960938 C29.348875,18.9960938 30.3396157,18.5055362 31.0481935,17.5323078 C31.7583565,16.5559246 32.1134379,15.2688024 32.1134379,13.6693638 L32.1134379,13.6693638 Z" id="path-7"></path>
        <path d="M53.052149,13.5463301 C53.052149,16.1205745 52.349912,18.1553632 50.9438528,19.649119 C49.6836305,20.9788298 48.1206379,21.6428965 46.2532898,21.6428965 C44.2385194,21.6428965 42.7896602,20.9283544 41.9098824,19.4961155 L41.9098824,27.4381011 L38.5302676,27.4381011 L38.5302676,11.1392854 C38.5302676,9.5224959 38.4874676,7.86469514 38.4050379,6.16430578 L41.3772602,6.16430578 L41.5658972,8.56346368 L41.6293046,8.56346368 C42.7547861,6.75581413 44.4652009,5.85198936 46.7621342,5.85198936 C48.5549787,5.85198936 50.0529787,6.55706733 51.254549,7.96880061 C52.4497787,9.3836886 53.052149,11.2418135 53.052149,13.5463301 L53.052149,13.5463301 Z M49.6075416,13.6693638 C49.6075416,12.1961137 49.2730676,10.9815498 48.6041194,10.024095 C47.873349,9.02878359 46.8952898,8.53033921 45.6651861,8.53033921 C44.8313787,8.53033921 44.0736602,8.8079538 43.3936157,9.3552962 C42.7151565,9.90737067 42.2728898,10.6282222 42.0652305,11.5210055 C41.9621935,11.9374274 41.906712,12.2765588 41.906712,12.5447093 L41.906712,15.0700556 C41.906712,16.1694725 42.2475268,17.098535 42.9228157,17.8588204 C43.601275,18.6143737 44.4826379,18.9960938 45.570075,18.9960938 C46.8445639,18.9960938 47.8353046,18.5055362 48.5422972,17.5323078 C49.2524602,16.5559246 49.6075416,15.2688024 49.6075416,13.6693638 L49.6075416,13.6693638 Z" id="path-8"></path>
        <path id="path-9" d="M72.6133342,15.4123418 C72.6133342,17.1994857 71.9856009,18.6522302 70.7380602,19.7737301 C69.3652898,20.9977581 67.4488009,21.6113494 64.9917639,21.6113494 C62.7217787,21.6113494 60.9019861,21.1759992 59.5292157,20.3037216 L60.310712,17.5007606 C61.7928602,18.3746157 63.4208453,18.8099658 65.1930824,18.8099658 C66.4675713,18.8099658 67.458312,18.5228871 68.1653046,17.9534617 C68.8738824,17.382459 69.2321342,16.6190188 69.2321342,15.666296 C69.2321342,14.8129467 68.9357046,14.0984046 68.3539416,13.5163603 C67.7690083,12.9358935 66.8020453,12.3948605 65.4435416,11.8979935 C61.7500602,10.5272714 59.9017342,8.52245243 59.9017342,5.88511383 C59.9017342,4.16264149 60.5548305,2.75248556 61.8578528,1.64991398 C63.160875,0.548919757 64.8887268,-0.00157735562 67.0382379,-0.00157735562 C68.9578972,-0.00157735562 70.557349,0.331244681 71.8270824,0.995311398 L70.9790083,3.73675547 C69.7837787,3.09319438 68.4347861,2.77141383 66.9256898,2.77141383 C65.7336305,2.77141383 64.7983713,3.06322462 64.1294231,3.64369149 C63.5666824,4.16264149 63.281349,4.79516109 63.281349,5.54598237 C63.281349,6.37409407 63.606312,7.06182112 64.2530676,7.60127675 C64.8142231,8.09814377 65.8382528,8.63917675 67.3188157,9.21964362 C69.1354379,9.94838191 70.4701639,10.7969992 71.3245787,11.771805 C72.1853342,12.7466108 72.6133342,13.962752 72.6133342,15.4123418 L72.6133342,15.4123418 Z"></path>
        <path id="path-10" d="M83.8158379,8.68807477 L80.0906528,8.68807477 L80.0906528,16.0369746 C80.0906528,17.906141 80.7469194,18.8383582 82.0626231,18.8383582 C82.6665787,18.8383582 83.1674972,18.7878828 83.5637935,18.6822 L83.6573194,21.2359388 C82.9915416,21.4835836 82.1149342,21.6081947 81.0290824,21.6081947 C79.6943565,21.6081947 78.6513046,21.2028143 77.8983416,20.3920535 C77.148549,19.5812927 76.771275,18.2231895 76.771275,16.3114345 L76.771275,8.68176535 L74.5520157,8.68176535 L74.5520157,6.15799635 L76.771275,6.15799635 L76.771275,3.38658252 L80.0906528,2.38969377 L80.0906528,6.15799635 L83.8158379,6.15799635 L83.8158379,8.68807477 L83.8158379,8.68807477 Z"></path>
        <path d="M100.590268,13.607847 C100.590268,15.9344465 99.9213194,17.8446242 98.5865935,19.3383799 C97.1900453,20.8763017 95.3322083,21.6428965 93.0162528,21.6428965 C90.7811416,21.6428965 89.004149,20.9062714 87.6789342,19.4345986 C86.3537194,17.9597711 85.691112,16.1016462 85.691112,13.8602239 C85.691112,11.514696 86.375912,9.5934769 87.7407565,8.09972112 C89.1087713,6.60438799 90.9507565,5.85672143 93.266712,5.85672143 C95.4986528,5.85672143 97.2914972,6.59492386 98.6484157,8.06817401 C99.9450972,9.49725821 100.590268,11.3427643 100.590268,13.607847 L100.590268,13.607847 Z M97.0870083,13.6851374 C97.0870083,12.2986418 96.7858231,11.1093157 96.1818676,10.1140043 C95.4732898,8.91205927 94.4587713,8.31108678 93.1446528,8.31108678 C91.7909046,8.31108678 90.7526083,8.91205927 90.0456157,10.1140043 C89.440075,11.1093157 89.1388898,12.3191474 89.1388898,13.7482316 C89.1388898,15.1363046 89.440075,16.3287854 90.0456157,17.3209421 C90.7763861,18.5228871 91.7956602,19.1238596 93.1161194,19.1238596 C94.4080453,19.1238596 95.4209787,18.5102682 96.1533342,17.2909723 C96.7747268,16.2720006 97.0870083,15.0747877 97.0870083,13.6851374 L97.0870083,13.6851374 Z" id="path-11"></path>
        <path id="path-12" d="M111.580356,9.12184757 C111.245882,9.0603307 110.887631,9.02878359 110.515112,9.02878359 C109.326223,9.02878359 108.406816,9.47359787 107.76006,10.3695359 C107.198905,11.1582137 106.916742,12.1551024 106.916742,13.3586248 L106.916742,21.3006103 L103.537127,21.3006103 L103.537127,10.9310745 C103.537127,9.1880965 103.503838,7.59812204 103.438845,6.16588313 L106.382534,6.16588313 L106.506179,9.06190805 L106.599705,9.06190805 C106.957956,8.06659666 107.519112,7.26372264 108.289512,6.66275015 C109.042475,6.12171717 109.855675,5.85198936 110.732282,5.85198936 C111.044564,5.85198936 111.326727,5.87407234 111.577186,5.91350623 L111.580356,9.12184757 L111.580356,9.12184757 Z"></path>
        <path d="M126.695097,13.0163386 C126.695097,13.6188884 126.655468,14.126797 126.571453,14.5416415 L116.432608,14.5416415 C116.470653,16.0369746 116.96206,17.1821348 117.90366,17.9708126 C118.758075,18.6743132 119.862949,19.0276409 121.219868,19.0276409 C122.721038,19.0276409 124.090638,18.7910375 125.322327,18.3130988 L125.851779,20.6460078 C124.412431,21.2706406 122.713112,21.5813796 120.752238,21.5813796 C118.393482,21.5813796 116.541986,20.8904979 115.194579,19.5118891 C113.850342,18.1317029 113.176638,16.2767327 113.176638,13.9532878 C113.176638,11.6724316 113.802786,9.77171809 115.056668,8.25587933 C116.369201,6.63751246 118.143023,5.82832903 120.374964,5.82832903 C122.567275,5.82832903 124.226964,6.63751246 125.354031,8.25587933 C126.24649,9.53826945 126.695097,11.1282439 126.695097,13.0163386 L126.695097,13.0163386 Z M123.472416,12.1440609 C123.496193,11.1455948 123.274268,10.285936 122.816149,9.55877508 C122.231216,8.62182584 121.330831,8.15492857 120.124505,8.15492857 C119.019631,8.15492857 118.119245,8.61078435 117.434445,9.52565061 C116.871705,10.2528116 116.537231,11.1266666 116.434193,12.1409062 L123.472416,12.1440609 L123.472416,12.1440609 Z" id="path-13"></path>
    </defs>
    <g id="Page-1" stroke="none" stroke-width="1" fill="none" fill-rule="evenodd" sketch:type="MSPage">
        <g id="A4" sketch:type="MSArtboardGroup" transform="translate(-160.000000, -903.000000)">
            <g id="app-store-button" sketch:type="MSLayerGroup" transform="translate(160.000000, 903.000000)">
                <g id="Group">
                    <g id="Shape">
                        <use fill="none" sketch:type="MSShapeGroup" xlink:href="#path-2"></use>
                        <use fill-opacity="0.1" fill="url(#linearGradient-1)" fill-rule="evenodd" xlink:href="#path-2"></use>
                        <use fill="#000000" fill-rule="evenodd" xlink:href="#path-2"></use>
                    </g>
                    <g id="Shape" fill="#FFFFFF">
                        <use sketch:type="MSShapeGroup" xlink:href="#path-3"></use>
                        <use fill-opacity="0.5" xlink:href="#path-3"></use>
                    </g>
                    <g id="Shape">
                        <use fill="#FFFFFF" sketch:type="MSShapeGroup" xlink:href="#path-4"></use>
                        <use fill="#000000" xlink:href="#path-4"></use>
                    </g>
                    <g id="Shape">
                        <use fill="#FFFFFF" sketch:type="MSShapeGroup" xlink:href="#path-5"></use>
                        <use fill="#000000" xlink:href="#path-5"></use>
                    </g>
                    <g id="App-Store" transform="translate(67.596825, 28.392401)" fill="#FFFFFF" sketch:type="MSShapeGroup">
                        <path d="M17.4721376,21.3006103 L13.872182,21.3006103 L11.9002116,15.1347272 L5.0458709,15.1347272 L3.16742646,21.3006103 L-0.337417989,21.3006103 L6.45510053,0.309161702 L10.6495005,0.309161702 L17.4721376,21.3006103 L17.4721376,21.3006103 Z M11.3057672,12.547864 L9.52243386,7.06655319 C9.33379683,6.50659195 8.97871534,5.18792264 8.4587746,3.11212264 L8.3953672,3.11212264 C8.18612275,4.00490593 7.85164868,5.32357523 7.39353016,7.06655319 L5.64031534,12.547864 L11.3057672,12.547864 L11.3057672,12.547864 Z" id="Shape"></path>
                        <path d="M34.9060042,13.5463301 C34.9060042,16.1205745 34.2037672,18.1553632 32.7977079,19.649119 C31.5390709,20.9788298 29.9744931,21.6428965 28.1087302,21.6428965 C26.0939598,21.6428965 24.6451005,20.9283544 23.7653228,19.4961155 L23.7653228,27.4381011 L20.3857079,27.4381011 L20.3857079,11.1392854 C20.3857079,9.5224959 20.3429079,7.86469514 20.2604783,6.16430578 L23.2327005,6.16430578 L23.4213376,8.56346368 L23.484745,8.56346368 C24.6118116,6.75581413 26.3222265,5.85198936 28.6175746,5.85198936 C30.4120042,5.85198936 31.9100042,6.55706733 33.1084042,7.96880061 C34.305219,9.3836886 34.9060042,11.2418135 34.9060042,13.5463301 L34.9060042,13.5463301 Z M31.462982,13.6693638 C31.462982,12.1961137 31.1300931,10.9815498 30.461145,10.024095 C29.7303746,9.02878359 28.749145,8.53033921 27.5190413,8.53033921 C26.6852339,8.53033921 25.9275153,8.8079538 25.2506413,9.3552962 C24.572182,9.90737067 24.1283302,10.6282222 23.9206709,11.5210055 C23.8160487,11.9374274 23.7637376,12.2765588 23.7637376,12.5447093 L23.7637376,15.0700556 C23.7637376,16.1694725 24.1029672,17.098535 24.7814265,17.8588204 C25.4598857,18.6159511 26.3412487,18.9960938 27.4255153,18.9960938 C28.698419,18.9960938 29.6891598,18.5055362 30.3977376,17.5323078 C31.1079005,16.5559246 31.462982,15.2688024 31.462982,13.6693638 L31.462982,13.6693638 Z" id="Shape"></path>
                        <path d="M52.4016931,13.5463301 C52.4016931,16.1205745 51.6994561,18.1553632 50.2933968,19.649119 C49.0331746,20.9788298 47.470182,21.6428965 45.6028339,21.6428965 C43.5880635,21.6428965 42.1392042,20.9283544 41.2594265,19.4961155 L41.2594265,27.4381011 L37.8798116,27.4381011 L37.8798116,11.1392854 C37.8798116,9.5224959 37.8370116,7.86469514 37.754582,6.16430578 L40.7268042,6.16430578 L40.9154413,8.56346368 L40.9788487,8.56346368 C42.1043302,6.75581413 43.814745,5.85198936 46.1116783,5.85198936 C47.9045228,5.85198936 49.4025228,6.55706733 50.6040931,7.96880061 C51.7993228,9.3836886 52.4016931,11.2418135 52.4016931,13.5463301 L52.4016931,13.5463301 Z M48.9570857,13.6693638 C48.9570857,12.1961137 48.6226116,10.9815498 47.9536635,10.024095 C47.2228931,9.02878359 46.2448339,8.53033921 45.0147302,8.53033921 C44.1809228,8.53033921 43.4232042,8.8079538 42.7431598,9.3552962 C42.0647005,9.90737067 41.6224339,10.6282222 41.4147746,11.5210055 C41.3117376,11.9374274 41.2562561,12.2765588 41.2562561,12.5447093 L41.2562561,15.0700556 C41.2562561,16.1694725 41.5970709,17.098535 42.2723598,17.8588204 C42.950819,18.6143737 43.832182,18.9960938 44.919619,18.9960938 C46.1941079,18.9960938 47.1848487,18.5055362 47.8918413,17.5323078 C48.6020042,16.5559246 48.9570857,15.2688024 48.9570857,13.6693638 L48.9570857,13.6693638 Z" id="Shape"></path>
                        <path d="M71.9628783,15.4123418 C71.9628783,17.1994857 71.335145,18.6522302 70.0876042,19.7737301 C68.7148339,20.9977581 66.798345,21.6113494 64.3413079,21.6113494 C62.0713228,21.6113494 60.2515302,21.1759992 58.8787598,20.3037216 L59.6602561,17.5007606 C61.1424042,18.3746157 62.7703894,18.8099658 64.5426265,18.8099658 C65.8171153,18.8099658 66.8078561,18.5228871 67.5148487,17.9534617 C68.2234265,17.382459 68.5816783,16.6190188 68.5816783,15.666296 C68.5816783,14.8129467 68.2852487,14.0984046 67.7034857,13.5163603 C67.1185524,12.9358935 66.1515894,12.3948605 64.7930857,11.8979935 C61.0996042,10.5272714 59.2512783,8.52245243 59.2512783,5.88511383 C59.2512783,4.16264149 59.9043746,2.75248556 61.2073968,1.64991398 C62.510419,0.548919757 64.2382709,-0.00157735562 66.387782,-0.00157735562 C68.3074413,-0.00157735562 69.9068931,0.331244681 71.1766265,0.995311398 L70.3285524,3.73675547 C69.1333228,3.09319438 67.7843302,2.77141383 66.2752339,2.77141383 C65.0831746,2.77141383 64.1479153,3.06322462 63.4789672,3.64369149 C62.9162265,4.16264149 62.6308931,4.79516109 62.6308931,5.54598237 C62.6308931,6.37409407 62.9558561,7.06182112 63.6026116,7.60127675 C64.1637672,8.09814377 65.1877968,8.63917675 66.6683598,9.21964362 C68.484982,9.94838191 69.8197079,10.7969992 70.6741228,11.771805 C71.5348783,12.7466108 71.9628783,13.962752 71.9628783,15.4123418 L71.9628783,15.4123418 Z" id="Shape"></path>
                        <path d="M83.165382,8.68807477 L79.4401968,8.68807477 L79.4401968,16.0369746 C79.4401968,17.906141 80.0964635,18.8383582 81.4121672,18.8383582 C82.0161228,18.8383582 82.5170413,18.7878828 82.9133376,18.6822 L83.0068635,21.2359388 C82.3410857,21.4835836 81.4644783,21.6081947 80.3786265,21.6081947 C79.0439005,21.6081947 78.0008487,21.2028143 77.2478857,20.3920535 C76.4980931,19.5812927 76.120819,18.2231895 76.120819,16.3114345 L76.120819,8.68176535 L73.9015598,8.68176535 L73.9015598,6.15799635 L76.120819,6.15799635 L76.120819,3.38658252 L79.4401968,2.38969377 L79.4401968,6.15799635 L83.165382,6.15799635 L83.165382,8.68807477 L83.165382,8.68807477 Z" id="Shape"></path>
                        <path d="M99.9398116,13.607847 C99.9398116,15.9344465 99.2708635,17.8446242 97.9361376,19.3383799 C96.5395894,20.8763017 94.6817524,21.6428965 92.3657968,21.6428965 C90.1306857,21.6428965 88.3536931,20.9062714 87.0284783,19.4345986 C85.7032635,17.9597711 85.0406561,16.1016462 85.0406561,13.8602239 C85.0406561,11.514696 85.7254561,9.5934769 87.0903005,8.09972112 C88.4583153,6.60438799 90.3003005,5.85672143 92.6162561,5.85672143 C94.8481968,5.85672143 96.6410413,6.59492386 97.9979598,8.06817401 C99.2946413,9.49725821 99.9398116,11.3427643 99.9398116,13.607847 L99.9398116,13.607847 Z M96.4365524,13.6851374 C96.4365524,12.2986418 96.1353672,11.1093157 95.5314116,10.1140043 C94.8228339,8.91205927 93.8083153,8.31108678 92.4941968,8.31108678 C91.1404487,8.31108678 90.1021524,8.91205927 89.3951598,10.1140043 C88.789619,11.1093157 88.4884339,12.3191474 88.4884339,13.7482316 C88.4884339,15.1363046 88.789619,16.3287854 89.3951598,17.3209421 C90.1259302,18.5228871 91.1452042,19.1238596 92.4656635,19.1238596 C93.7575894,19.1238596 94.7705228,18.5102682 95.5028783,17.2909723 C96.1242709,16.2720006 96.4365524,15.0747877 96.4365524,13.6851374 L96.4365524,13.6851374 Z" id="Shape"></path>
                        <path d="M110.929901,9.12184757 C110.595426,9.0603307 110.237175,9.02878359 109.864656,9.02878359 C108.675767,9.02878359 107.75636,9.47359787 107.109604,10.3695359 C106.548449,11.1582137 106.266286,12.1551024 106.266286,13.3586248 L106.266286,21.3006103 L102.886671,21.3006103 L102.886671,10.9310745 C102.886671,9.1880965 102.853382,7.59812204 102.788389,6.16588313 L105.732078,6.16588313 L105.855723,9.06190805 L105.949249,9.06190805 C106.307501,8.06659666 106.868656,7.26372264 107.639056,6.66275015 C108.392019,6.12171717 109.205219,5.85198936 110.081826,5.85198936 C110.394108,5.85198936 110.676271,5.87407234 110.92673,5.91350623 L110.929901,9.12184757 L110.929901,9.12184757 Z" id="Shape"></path>
                        <path d="M126.044641,13.0163386 C126.044641,13.6188884 126.005012,14.126797 125.920997,14.5416415 L115.782152,14.5416415 C115.820197,16.0369746 116.311604,17.1821348 117.253204,17.9708126 C118.107619,18.6743132 119.212493,19.0276409 120.569412,19.0276409 C122.070582,19.0276409 123.440182,18.7910375 124.671871,18.3130988 L125.201323,20.6460078 C123.761975,21.2706406 122.062656,21.5813796 120.101782,21.5813796 C117.743026,21.5813796 115.89153,20.8904979 114.544123,19.5118891 C113.199886,18.1317029 112.526182,16.2767327 112.526182,13.9532878 C112.526182,11.6724316 113.15233,9.77171809 114.406212,8.25587933 C115.718745,6.63751246 117.492567,5.82832903 119.724508,5.82832903 C121.916819,5.82832903 123.576508,6.63751246 124.703575,8.25587933 C125.596034,9.53826945 126.044641,11.1282439 126.044641,13.0163386 L126.044641,13.0163386 Z M122.82196,12.1440609 C122.845738,11.1455948 122.623812,10.285936 122.165693,9.55877508 C121.58076,8.62182584 120.680375,8.15492857 119.474049,8.15492857 C118.369175,8.15492857 117.468789,8.61078435 116.783989,9.52565061 C116.221249,10.2528116 115.886775,11.1266666 115.783738,12.1409062 L122.82196,12.1440609 L122.82196,12.1440609 Z" id="Shape"></path>
                    </g>
                    <g id="Group-2" transform="translate(66.946369, 28.392401)">
                        <g id="Shape">
                            <use fill="none" sketch:type="MSShapeGroup" xlink:href="#path-6"></use>
                            <use fill="#000000" fill-rule="evenodd" xlink:href="#path-6"></use>
                        </g>
                        <g id="Shape">
                            <use fill="none" sketch:type="MSShapeGroup" xlink:href="#path-7"></use>
                            <use fill="#000000" fill-rule="evenodd" xlink:href="#path-7"></use>
                        </g>
                        <g id="Shape">
                            <use fill="none" sketch:type="MSShapeGroup" xlink:href="#path-8"></use>
                            <use fill="#000000" fill-rule="evenodd" xlink:href="#path-8"></use>
                        </g>
                        <g id="Shape">
                            <use fill="none" sketch:type="MSShapeGroup" xlink:href="#path-9"></use>
                            <use fill="#000000" fill-rule="evenodd" xlink:href="#path-9"></use>
                        </g>
                        <g id="Shape">
                            <use fill="none" sketch:type="MSShapeGroup" xlink:href="#path-10"></use>
                            <use fill="#000000" fill-rule="evenodd" xlink:href="#path-10"></use>
                        </g>
                        <g id="Shape">
                            <use fill="none" sketch:type="MSShapeGroup" xlink:href="#path-11"></use>
                            <use fill="#000000" fill-rule="evenodd" xlink:href="#path-11"></use>
                        </g>
                        <g id="Shape">
                            <use fill="none" sketch:type="MSShapeGroup" xlink:href="#path-12"></use>
                            <use fill="#000000" fill-rule="evenodd" xlink:href="#path-12"></use>
                        </g>
                        <g id="Shape">
                            <use fill="none" sketch:type="MSShapeGroup" xlink:href="#path-13"></use>
                            <use fill="#000000" fill-rule="evenodd" xlink:href="#path-13"></use>
                        </g>
                    </g>
                    <g id="Group-2" transform="translate(67.428189, 6.771561)" fill="#000000">
                        <path d="M76.5044965,14.5858342 C74.3216965,14.5858342 72.9061261,12.9627353 72.9061261,10.7591695 C72.9061261,8.46253967 74.351815,6.82524453 76.6281409,6.82524453 C78.7824076,6.82524453 80.2280965,8.37105304 80.2280965,10.6377131 C80.2296817,12.9627353 78.7380224,14.5858342 76.5044965,14.5858342 L76.5044965,14.5858342 Z M76.5663187,8.03349894 C75.3679187,8.03349894 74.5991039,9.15026672 74.5991039,10.7118488 C74.5991039,12.2434611 75.3837706,13.3602289 76.5504669,13.3602289 C77.7203335,13.3602289 78.503415,12.1661707 78.503415,10.6803017 C78.5065854,9.16604028 77.7377706,8.03349894 76.5663187,8.03349894 L76.5663187,8.03349894 Z" id="Shape" sketch:type="MSShapeGroup"></path>
                        <path d="M89.1622002,14.4170571 L87.4993409,14.4170571 L87.4993409,10.1455781 C87.4993409,8.83006353 86.9920817,8.17072888 85.9918298,8.17072888 C85.0074298,8.17072888 84.3321409,9.01303678 84.3321409,9.99257462 L84.3321409,14.4170571 L82.6692817,14.4170571 L82.6692817,9.10452341 C82.6692817,8.44676611 82.6534298,7.74168815 82.6074595,6.97667067 L84.0690002,6.97667067 L84.1466743,8.12498557 L84.1926446,8.12498557 C84.6380817,7.32999833 85.5463928,6.82366718 86.5609113,6.82366718 C88.1302446,6.82366718 89.1622002,8.01772538 89.1622002,9.96102751 L89.1622002,14.4170571 L89.1622002,14.4170571 Z" id="Shape" sketch:type="MSShapeGroup"></path>
                        <path d="M100.339341,8.21804955 L98.5116224,8.21804955 L98.5116224,11.8301939 C98.5116224,12.7497923 98.8318298,13.2088027 99.4785854,13.2088027 C99.7718446,13.2088027 100.017548,13.1772556 100.215696,13.1315123 L100.261667,14.3870874 C99.9398743,14.5101211 99.5087039,14.571638 98.9729113,14.571638 C97.6635484,14.571638 96.8804669,13.8523638 96.8804669,11.9690012 L96.8804669,8.21804955 L95.7898595,8.21804955 L95.7898595,6.97824803 L96.8804669,6.97824803 L96.8804669,5.61541277 L98.5116224,5.12485517 L98.5116224,6.97667067 L100.339341,6.97667067 L100.339341,8.21804955 L100.339341,8.21804955 Z" id="Shape" sketch:type="MSShapeGroup"></path>
                        <path d="M109.133948,14.4170571 L107.474259,14.4170571 L107.474259,10.1771252 C107.474259,8.84583709 106.968585,8.17230624 105.966748,8.17230624 C105.105993,8.17230624 104.303889,8.75435046 104.303889,9.93263511 L104.303889,14.4170571 L102.6442,14.4170571 L102.6442,3.56485046 L104.303889,3.56485046 L104.303889,8.03349894 L104.337178,8.03349894 C104.860289,7.22273815 105.618008,6.82366718 106.584971,6.82366718 C108.166985,6.82366718 109.133948,8.04769514 109.133948,9.99257462 L109.133948,14.4170571 L109.133948,14.4170571 Z" id="Shape" sketch:type="MSShapeGroup"></path>
                        <path d="M118.144141,11.0951462 L113.158734,11.0951462 C113.190437,12.5037248 114.127282,13.298712 115.514319,13.298712 C116.25143,13.298712 116.929889,13.1756783 117.529089,12.9469617 L117.787474,14.0952766 C117.080482,14.4012836 116.248259,14.5542871 115.279711,14.5542871 C112.941563,14.5542871 111.557696,13.0841916 111.557696,10.8049128 C111.557696,8.52405654 112.974852,6.80947098 115.092659,6.80947098 C117.002808,6.80947098 118.201208,8.21804955 118.201208,10.3459023 C118.205963,10.6361357 118.191696,10.8963994 118.144141,11.0951462 L118.144141,11.0951462 Z M116.620778,9.91686156 C116.620778,8.76854666 116.039015,7.95778587 114.976941,7.95778587 C114.022659,7.95778587 113.268111,8.78432022 113.160319,9.91686156 L116.620778,9.91686156 L116.620778,9.91686156 Z" id="Shape" sketch:type="MSShapeGroup"></path>
                        <text id="Available" sketch:type="MSTextLayer" font-family="Lucida Grande" font-size="14.4814815" font-weight="normal" letter-spacing="0.200000003">
                            <tspan x="0.219227738" y="14.0582263">Available</tspan>
                        </text>
                    </g>
                </g>
            </g>
        </g>
    </g>
</svg>